<svg width="605" height="100" viewBox="0 0 605 100" fill="none" xmlns="http://www.w3.org/2000/svg">
<path d="M11.5525 96.625C11.1358 96.4583 10.1358 96 8.55249 95.25C7.05249 94.5 5.63582 93.625 4.30249 92.625C2.96916 91.625 2.01082 90.5833 1.42749 89.5C0.92749 88.4167 1.46916 87.5 3.05249 86.75C3.96916 87.5833 5.21916 88.5833 6.80249 89.75C8.46916 90.9167 10.0525 91.7917 11.5525 92.375C16.1358 92.625 20.5942 92.6667 24.9275 92.5C29.2608 92.25 33.4692 91.7083 37.5525 90.875C41.7192 89.9583 45.7192 88.625 49.5525 86.875C53.4692 85.0417 57.2608 82.6667 60.9275 79.75C65.0108 76.3333 67.6775 73.2083 68.9275 70.375C70.2608 67.4583 70.5108 64.7917 69.6775 62.375C68.9275 59.875 67.3025 57.5833 64.8025 55.5C62.3858 53.3333 59.4692 51.3333 56.0525 49.5C52.7192 47.5833 49.1358 45.8333 45.3025 44.25C41.4692 42.5833 37.8025 41 34.3025 39.5C30.8025 37.9167 27.6358 36.375 24.8025 34.875C21.9692 33.375 19.8858 31.8333 18.5525 30.25C18.2192 28.8333 18.9275 27.1667 20.6775 25.25C22.4275 23.3333 24.8442 21.375 27.9275 19.375C31.0108 17.2917 34.5525 15.25 38.5525 13.25C42.5525 11.1667 46.6358 9.29167 50.8025 7.625C55.0525 5.95833 59.1358 4.54167 63.0525 3.375C67.0525 2.20833 70.5525 1.5 73.5525 1.25C76.5525 0.916667 78.8442 1.125 80.4275 1.875C82.0108 2.625 82.5525 4.04167 82.0525 6.125C81.4692 6.20833 79.9692 6.58333 77.5525 7.25C75.1358 7.91667 72.1775 8.75 68.6775 9.75C65.2608 10.75 61.5108 11.9167 57.4275 13.25C53.4275 14.5833 49.4692 16 45.5525 17.5C41.6358 18.9167 38.0108 20.375 34.6775 21.875C31.3442 23.375 28.7192 24.8333 26.8025 26.25C24.8858 27.6667 23.8025 28.9583 23.5525 30.125C23.3858 31.2917 24.5108 32.2917 26.9275 33.125C39.0942 36.7917 48.6358 40.7083 55.5525 44.875C62.5525 48.9583 67.4692 53.125 70.3025 57.375C73.1358 61.5417 74.2192 65.6667 73.5525 69.75C72.8858 73.8333 71.0525 77.625 68.0525 81.125C65.1358 84.625 61.3025 87.75 56.5525 90.5C51.8025 93.1667 46.7608 95.25 41.4275 96.75C36.1775 98.25 30.8858 99.0417 25.5525 99.125C20.3025 99.2083 15.6358 98.375 11.5525 96.625ZM87.1175 96.625C82.8675 95.2083 80.0342 93 78.6175 90C77.2842 87 76.9092 83.625 77.4925 79.875C78.1592 76.0417 79.6175 72.0417 81.8675 67.875C84.1175 63.625 86.7842 59.5833 89.8675 55.75C92.9508 51.9167 96.2008 48.4583 99.6175 45.375C103.034 42.2917 106.242 39.9583 109.242 38.375C112.326 36.7917 114.951 36.1667 117.117 36.5C119.284 36.8333 120.617 38.5 121.117 41.5C121.367 42.8333 121.201 44.2917 120.617 45.875C120.117 47.4583 119.367 49 118.367 50.5C117.451 51.9167 116.367 53.25 115.117 54.5C113.951 55.6667 112.784 56.5417 111.617 57.125C110.534 57.7083 109.534 57.9167 108.617 57.75C107.784 57.5833 107.242 56.875 106.992 55.625C107.992 53.9583 109.117 52.2917 110.367 50.625C111.617 48.875 112.826 47.25 113.992 45.75C113.492 44.8333 112.534 44.625 111.117 45.125C109.701 45.625 107.992 46.625 105.992 48.125C103.992 49.625 101.867 51.5417 99.6175 53.875C97.4508 56.125 95.3258 58.5833 93.2425 61.25C91.1592 63.9167 89.2842 66.7083 87.6175 69.625C86.0342 72.4583 84.8675 75.2083 84.1175 77.875C83.3675 80.5417 83.1592 83.0417 83.4925 85.375C83.9092 87.625 85.1175 89.4583 87.1175 90.875C89.8675 91.125 93.0342 90.875 96.6175 90.125C100.201 89.2917 103.867 88.25 107.617 87C111.367 85.75 115.076 84.4167 118.742 83C122.492 81.5 125.867 80.125 128.867 78.875C131.951 77.625 134.534 76.6667 136.617 76C138.784 75.25 140.201 75.0417 140.867 75.375C142.451 76.2083 142.534 77.4167 141.117 79C139.784 80.5833 137.492 82.2917 134.242 84.125C130.992 85.9583 127.117 87.7917 122.617 89.625C118.201 91.375 113.742 92.9167 109.242 94.25C104.742 95.5 100.492 96.4167 96.4925 97C92.4925 97.5 89.3675 97.375 87.1175 96.625ZM143.057 95.125C142.974 94.9583 142.932 94.75 142.932 94.5C142.932 94.1667 142.974 93.9167 143.057 93.75C143.391 93.0833 143.932 91.9583 144.682 90.375C145.516 88.7083 146.349 87 147.182 85.25C148.099 83.4167 148.974 81.7083 149.807 80.125C150.641 78.5417 151.224 77.4167 151.557 76.75C151.724 76.5 152.141 75.7917 152.807 74.625C153.557 73.4583 154.432 72.0417 155.432 70.375C156.516 68.625 157.641 66.7083 158.807 64.625C160.057 62.5417 161.266 60.5 162.432 58.5C163.682 56.5 164.807 54.625 165.807 52.875C166.891 51.125 167.766 49.6667 168.432 48.5C170.099 45.75 172.016 42.5 174.182 38.75C176.432 35 178.724 31.2083 181.057 27.375C183.391 23.5417 185.682 19.8333 187.932 16.25C190.266 12.6667 192.391 9.70833 194.307 7.375C196.224 5.04167 197.849 3.5 199.182 2.75C200.516 2 201.432 2.5 201.932 4.25V8.25C201.349 9.16667 200.557 10.375 199.557 11.875C198.557 13.2917 197.516 14.8333 196.432 16.5C195.432 18.0833 194.432 19.625 193.432 21.125C192.432 22.625 191.682 23.7917 191.182 24.625C190.432 25.7917 189.224 27.6667 187.557 30.25C185.891 32.8333 184.016 35.75 181.932 39C179.849 42.25 177.724 45.6667 175.557 49.25C173.391 52.75 171.432 56.0417 169.682 59.125C167.932 62.2083 166.516 64.875 165.432 67.125C164.432 69.2917 164.057 70.6667 164.307 71.25C166.307 70.6667 168.432 69.625 170.682 68.125C173.016 66.5417 175.349 64.875 177.682 63.125C180.016 61.375 182.349 59.7083 184.682 58.125C187.016 56.4583 189.182 55.1667 191.182 54.25C193.182 54.5 194.932 55.25 196.432 56.5C197.932 57.75 199.016 59.3333 199.682 61.25C199.599 62 199.516 63.4167 199.432 65.5C199.432 67.5 199.432 69.625 199.432 71.875C199.432 74.125 199.432 76.25 199.432 78.25C199.516 80.25 199.599 81.625 199.682 82.375C199.766 83.2917 200.182 84.4583 200.932 85.875C201.682 87.2083 202.474 88.5833 203.307 90C204.224 91.3333 205.016 92.5 205.682 93.5C206.432 94.5 206.766 95.0417 206.682 95.125C205.016 95.7083 203.432 95.75 201.932 95.25C200.432 94.6667 199.099 93.7917 197.932 92.625C196.849 91.375 195.932 90 195.182 88.5C194.516 86.9167 194.099 85.375 193.932 83.875C193.849 83.125 193.724 81.75 193.557 79.75C193.391 77.6667 193.224 75.5 193.057 73.25C192.974 71 192.849 68.875 192.682 66.875C192.599 64.875 192.557 63.5 192.557 62.75L189.682 61.25C189.182 61 188.307 61.2083 187.057 61.875C185.891 62.5417 184.516 63.4583 182.932 64.625C181.349 65.7917 179.682 67.125 177.932 68.625C176.182 70.125 174.516 71.5417 172.932 72.875C171.432 74.2083 170.141 75.375 169.057 76.375C167.974 77.375 167.307 78 167.057 78.25C166.391 78.9167 165.182 80.125 163.432 81.875C161.682 83.5417 159.807 85.375 157.807 87.375C155.891 89.2917 154.057 91.125 152.307 92.875C150.641 94.625 149.474 95.875 148.807 96.625C147.641 96.875 146.516 97 145.432 97C144.432 96.9167 143.641 96.2917 143.057 95.125ZM286.122 95.125C285.206 94.0417 284.664 92.8333 284.497 91.5C284.414 90.0833 284.497 88.7083 284.747 87.375C285.081 85.9583 285.497 84.625 285.997 83.375C286.581 82.0417 287.122 80.8333 287.622 79.75C287.956 78.9167 288.622 77.4167 289.622 75.25C290.706 73 291.831 70.6667 292.997 68.25C294.247 65.8333 295.414 63.5833 296.497 61.5C297.581 59.3333 298.331 57.8333 298.747 57V54.25C297.914 53.8333 296.206 54.4167 293.622 56C291.039 57.5 288.039 59.625 284.622 62.375C281.206 65.0417 277.581 68.0417 273.747 71.375C269.914 74.7083 266.289 77.9167 262.872 81C259.539 84 256.622 86.7083 254.122 89.125C251.622 91.4583 250.039 93 249.372 93.75C247.539 94.3333 246.331 93.9583 245.747 92.625C245.247 91.2083 245.122 89.2917 245.372 86.875C245.622 84.375 246.122 81.625 246.872 78.625C247.622 75.5417 248.372 72.6667 249.122 70C249.956 67.25 250.664 64.9167 251.247 63C251.914 61.0833 252.206 60.0417 252.122 59.875C250.456 59.2917 248.706 59.5 246.872 60.5C245.039 61.5 243.164 63 241.247 65C239.331 66.9167 237.414 69.2083 235.497 71.875C233.581 74.4583 231.664 77.0833 229.747 79.75C227.831 82.3333 225.997 84.8333 224.247 87.25C222.497 89.5833 220.831 91.5 219.247 93C217.664 94.5 216.164 95.375 214.747 95.625C213.414 95.875 212.247 95.25 211.247 93.75C211.164 93.6667 211.122 93.4583 211.122 93.125C211.122 92.7917 211.164 92.5417 211.247 92.375C211.664 91.5417 212.289 90.25 213.122 88.5C214.039 86.6667 215.039 84.625 216.122 82.375C217.206 80.125 218.372 77.7917 219.622 75.375C220.872 72.875 222.039 70.5417 223.122 68.375C224.289 66.125 225.289 64.125 226.122 62.375C227.039 60.625 227.747 59.3333 228.247 58.5C228.664 57.6667 229.247 56.625 229.997 55.375C230.747 54.0417 231.497 52.7917 232.247 51.625C232.997 50.375 233.664 49.3333 234.247 48.5C234.831 47.5833 235.122 47.125 235.122 47.125H238.122C238.706 49.0417 238.622 50.8333 237.872 52.5C237.122 54.1667 236.206 55.7917 235.122 57.375C234.122 58.9583 233.247 60.5417 232.497 62.125C231.831 63.625 231.831 65.25 232.497 67C239.664 60.6667 245.164 56 248.997 53C252.914 50 255.664 48.2917 257.247 47.875C258.831 47.4583 259.581 48.0833 259.497 49.75C259.414 51.4167 259.039 53.6667 258.372 56.5C257.789 59.3333 257.164 62.5833 256.497 66.25C255.914 69.8333 255.872 73.3333 256.372 76.75H257.872C258.372 76.4167 259.206 75.7917 260.372 74.875C261.539 73.9583 262.789 72.9583 264.122 71.875C265.539 70.7917 266.831 69.7917 267.997 68.875C269.247 67.9583 270.122 67.3333 270.622 67C271.539 66.25 272.872 65.2083 274.622 63.875C276.372 62.5417 278.122 61.2083 279.872 59.875C281.706 58.4583 283.331 57.25 284.747 56.25C286.247 55.1667 287.206 54.5 287.622 54.25C287.956 54 288.664 53.5 289.747 52.75C290.914 51.9167 292.164 51.0417 293.497 50.125C294.914 49.2083 296.247 48.375 297.497 47.625C298.747 46.7917 299.664 46.1667 300.247 45.75C301.497 44.9167 302.664 44.5417 303.747 44.625C304.831 44.7083 305.706 45.125 306.372 45.875C307.122 46.5417 307.581 47.5 307.747 48.75C307.914 49.9167 307.747 51.25 307.247 52.75C305.247 56.5 303.247 60.1667 301.247 63.75C299.331 67.3333 297.539 70.9583 295.872 74.625C294.289 78.2083 292.956 81.9167 291.872 85.75C290.872 89.5833 290.331 93.6667 290.247 98C289.831 98.25 289.372 98.25 288.872 98C288.456 97.75 288.039 97.4167 287.622 97C287.206 96.5833 286.831 96.1667 286.497 95.75C286.247 95.3333 286.122 95.125 286.122 95.125ZM316.062 95.125C314.062 93.4583 312.938 91 312.688 87.75C312.521 84.5 312.979 80.8333 314.062 76.75C315.229 72.6667 316.896 68.4167 319.062 64C321.312 59.5 323.896 55.25 326.812 51.25C329.729 47.1667 332.896 43.5417 336.312 40.375C339.729 37.125 343.146 34.75 346.562 33.25C349.979 31.6667 353.312 31.125 356.562 31.625C359.812 32.0417 362.771 33.9167 365.438 37.25C367.104 39.3333 368.104 41.4583 368.438 43.625C368.771 45.7083 368.729 47.875 368.312 50.125C367.896 52.2917 367.229 54.5417 366.312 56.875C365.396 59.125 364.479 61.4167 363.562 63.75C362.729 66.0833 362.021 68.4583 361.438 70.875C360.938 73.2917 360.854 75.75 361.188 78.25C361.604 81.4167 363.021 83.2917 365.438 83.875C367.854 84.4583 370.729 84.2917 374.062 83.375C377.479 82.4583 381.062 81 384.812 79C388.562 77 392.021 75 395.188 73C398.438 71 401.104 69.25 403.188 67.75C405.354 66.25 406.438 65.5 406.438 65.5C408.771 65 410.062 65.1667 410.312 66C410.646 66.75 410.188 67.9167 408.938 69.5C407.771 71 405.979 72.75 403.562 74.75C401.146 76.6667 398.396 78.5417 395.312 80.375C392.229 82.2083 388.938 83.875 385.438 85.375C381.938 86.875 378.521 87.9167 375.188 88.5C371.854 89 368.688 88.9583 365.688 88.375C362.771 87.7083 360.354 86.2083 358.438 83.875C357.521 82.875 356.812 81.875 356.312 80.875C355.896 79.875 355.188 79 354.188 78.25C352.938 79.4167 351.438 80.9583 349.688 82.875C347.938 84.7083 346.021 86.5833 343.938 88.5C341.938 90.3333 339.771 92.0833 337.438 93.75C335.188 95.4167 332.854 96.6667 330.438 97.5C328.021 98.3333 325.562 98.625 323.062 98.375C320.646 98.125 318.312 97.0417 316.062 95.125ZM317.438 90.875C318.188 93.5417 319.854 94.7917 322.438 94.625C325.021 94.375 328.021 93.0833 331.438 90.75C334.854 88.4167 338.396 85.25 342.062 81.25C345.729 77.1667 349.021 72.6667 351.938 67.75C354.854 62.75 357.062 57.5 358.562 52C360.146 46.5 360.562 41.0833 359.812 35.75C357.812 34.1667 355.312 34.125 352.312 35.625C349.312 37.0417 346.104 39.4167 342.688 42.75C339.354 46 336.021 49.9167 332.688 54.5C329.438 59 326.562 63.5833 324.062 68.25C321.562 72.8333 319.646 77.1667 318.312 81.25C317.062 85.3333 316.771 88.5417 317.438 90.875ZM397.753 96.625C396.753 95.9583 396.711 95.0833 397.628 94C398.628 92.8333 400.169 91.625 402.253 90.375C404.419 89.0417 406.919 87.6667 409.753 86.25C412.586 84.8333 415.294 83.5 417.878 82.25C420.544 81 422.878 79.9167 424.878 79C426.878 78 428.169 77.25 428.753 76.75C431.503 74.4167 432.919 72.5 433.003 71C433.169 69.4167 432.503 68.1667 431.003 67.25C429.503 66.25 427.378 65.5 424.628 65C421.961 64.4167 419.169 63.9167 416.253 63.5C413.419 63 410.669 62.5 408.003 62C405.419 61.5 403.461 60.8333 402.128 60C400.794 59.1667 400.336 58.0833 400.753 56.75C401.253 55.3333 403.086 53.5417 406.253 51.375C407.419 50.5417 409.128 49.3333 411.378 47.75C413.628 46.1667 416.044 44.5417 418.628 42.875C421.294 41.2083 423.919 39.7083 426.503 38.375C429.086 37.0417 431.253 36.1667 433.003 35.75C433.919 35.5833 434.836 35.6667 435.753 36C436.753 36.3333 437.544 36.8333 438.128 37.5C438.711 38.0833 438.961 38.75 438.878 39.5C438.878 40.25 438.336 40.9167 437.253 41.5C432.503 44.1667 427.919 46.6667 423.503 49C419.169 51.3333 414.794 54 410.378 57C410.128 57.6667 410.169 58.25 410.503 58.75C410.919 59.25 411.378 59.625 411.878 59.875C420.711 60.7917 427.336 62.0833 431.753 63.75C436.253 65.4167 439.086 67.25 440.253 69.25C441.503 71.25 441.378 73.375 439.878 75.625C438.378 77.875 436.128 80.0833 433.128 82.25C430.211 84.4167 426.836 86.4583 423.003 88.375C419.169 90.2917 415.461 91.9167 411.878 93.25C408.378 94.5833 405.294 95.5833 402.628 96.25C399.961 96.9167 398.336 97.0417 397.753 96.625ZM452.443 96.625C452.359 96.4583 452.318 96 452.318 95.25C452.318 94.5 452.359 94 452.443 93.75C452.693 92.8333 453.151 91.25 453.818 89C454.484 86.6667 455.193 84.25 455.943 81.75C456.693 79.1667 457.401 76.75 458.068 74.5C458.734 72.25 459.193 70.6667 459.443 69.75C459.776 68.5833 460.151 67.25 460.568 65.75C460.984 64.1667 461.068 62.6667 460.818 61.25C459.568 61.0833 458.026 61.25 456.193 61.75C454.359 62.1667 452.526 62.5417 450.693 62.875C448.943 63.125 447.276 63.125 445.693 62.875C444.193 62.5417 443.109 61.5417 442.443 59.875C443.443 57.7917 444.943 56.4583 446.943 55.875C448.943 55.2083 451.109 54.75 453.443 54.5C455.776 54.25 457.984 53.875 460.068 53.375C462.234 52.875 463.943 51.75 465.193 50C465.943 47.8333 466.818 45.2083 467.818 42.125C468.901 38.9583 470.026 35.6667 471.193 32.25C472.359 28.8333 473.609 25.4583 474.943 22.125C476.359 18.7917 477.818 15.8333 479.318 13.25C480.234 12.6667 480.984 12.625 481.568 13.125C482.151 13.625 482.568 14.375 482.818 15.375C483.151 16.2917 483.359 17.25 483.443 18.25C483.526 19.25 483.526 19.9167 483.443 20.25C482.943 22.4167 482.068 24.75 480.818 27.25C479.651 29.6667 478.526 32.125 477.443 34.625C476.443 37.125 475.609 39.625 474.943 42.125C474.359 44.625 474.359 47 474.943 49.25H501.818C501.901 49.25 502.109 49.5417 502.443 50.125C502.776 50.625 503.068 51.0417 503.318 51.375C503.734 52.5417 503.276 53.3333 501.943 53.75C500.609 54.1667 498.818 54.4583 496.568 54.625C494.318 54.7083 491.734 54.7917 488.818 54.875C485.984 54.875 483.234 55.0833 480.568 55.5C477.984 55.8333 475.651 56.4583 473.568 57.375C471.484 58.2083 470.068 59.5 469.318 61.25C467.151 66.8333 465.151 72.4583 463.318 78.125C461.484 83.7083 459.734 89.375 458.068 95.125C457.901 95.375 457.568 95.7917 457.068 96.375C456.568 96.875 456.026 97.3333 455.443 97.75C454.859 98.0833 454.276 98.2083 453.693 98.125C453.193 98.0417 452.776 97.5417 452.443 96.625ZM502.882 96.625C500.382 95.7917 498.466 94.5417 497.132 92.875C495.882 91.125 495.049 89.2083 494.632 87.125C494.216 85.0417 494.132 82.875 494.382 80.625C494.716 78.2917 495.216 76.0833 495.882 74C498.382 71.3333 501.174 68.2917 504.257 64.875C507.424 61.375 510.757 57.9583 514.257 54.625C517.757 51.2917 521.382 48.2083 525.132 45.375C528.966 42.4583 532.841 40.25 536.757 38.75C538.091 38.1667 539.132 38.2083 539.882 38.875C540.716 39.4583 541.299 40.4167 541.632 41.75C541.966 43.0833 542.091 44.625 542.007 46.375C542.007 48.125 541.882 49.8333 541.632 51.5C541.382 53.1667 541.049 54.6667 540.632 56C540.216 57.3333 539.799 58.25 539.382 58.75C538.382 59.9167 536.424 61.2917 533.507 62.875C530.674 64.4583 527.507 66.2083 524.007 68.125C520.507 69.9583 517.007 71.875 513.507 73.875C510.007 75.875 507.132 77.875 504.882 79.875C502.632 81.7917 501.299 83.7083 500.882 85.625C500.466 87.5417 501.632 89.2917 504.382 90.875C507.216 91.2083 510.632 91.0833 514.632 90.5C518.716 89.8333 522.841 89 527.007 88C531.257 86.9167 535.341 85.8333 539.257 84.75C543.174 83.5833 546.382 82.6667 548.882 82L550.382 83.375C548.549 85.7917 545.549 88 541.382 90C537.216 92 532.716 93.6667 527.882 95C523.049 96.25 518.341 97.0833 513.757 97.5C509.174 97.8333 505.549 97.5417 502.882 96.625ZM532.757 48.875C532.674 48.7917 532.049 49.1667 530.882 50C529.716 50.75 528.257 51.7917 526.507 53.125C524.841 54.375 523.007 55.7917 521.007 57.375C519.091 58.875 517.299 60.2917 515.632 61.625C514.049 62.9583 512.716 64.125 511.632 65.125C510.549 66.0417 510.091 66.5 510.257 66.5C511.591 66.75 513.299 66.5833 515.382 66C517.549 65.3333 519.757 64.4167 522.007 63.25C524.341 62.0833 526.549 60.7917 528.632 59.375C530.716 57.875 532.341 56.4167 533.507 55C534.757 53.5833 535.382 52.3333 535.382 51.25C535.466 50.1667 534.591 49.375 532.757 48.875ZM547.698 96.625C547.531 96.5417 547.531 95.5833 547.698 93.75C547.948 91.8333 548.281 89.4583 548.698 86.625C549.114 83.7917 549.656 80.6667 550.323 77.25C550.989 73.8333 551.698 70.5833 552.448 67.5C553.198 64.3333 553.989 61.5833 554.823 59.25C555.739 56.8333 556.614 55.1667 557.448 54.25C558.031 53.6667 558.614 53.6667 559.198 54.25C559.781 54.75 560.364 55.4167 560.948 56.25C561.531 57 562.114 57.7083 562.698 58.375C563.281 58.9583 563.906 59 564.573 58.5C566.906 55.25 569.448 52.1667 572.198 49.25C575.031 46.25 578.156 43.6667 581.573 41.5C581.906 41.25 582.823 40.875 584.323 40.375C585.823 39.7917 587.531 39.25 589.448 38.75C591.364 38.1667 593.323 37.7083 595.323 37.375C597.406 36.9583 599.156 36.7917 600.573 36.875C602.073 36.875 603.073 37.25 603.573 38C604.156 38.6667 603.906 39.8333 602.823 41.5C597.823 41.5833 593.156 43.0417 588.823 45.875C584.489 48.7083 580.489 52.2083 576.823 56.375C573.156 60.5417 569.823 65.0833 566.823 70C563.823 74.8333 561.198 79.3333 558.948 83.5C556.781 87.6667 554.948 91.125 553.448 93.875C552.031 96.625 550.989 98 550.323 98C550.239 98 549.864 97.8333 549.198 97.5C548.531 97.0833 548.031 96.7917 547.698 96.625Z" fill="#FDFDFD"/>
</svg>
